<mxfile host="Electron" modified="2023-10-20T22:25:20.588Z" agent="Mozilla/5.0 (Windows NT 10.0; Win64; x64) AppleWebKit/537.36 (KHTML, like Gecko) draw.io/22.0.3 Chrome/114.0.5735.289 Electron/25.8.4 Safari/537.36" etag="-dQaYwu0v4x9yk4NaieL" version="22.0.3" type="device">
  <diagram name="Page-1" id="g-MeKtBM5xe0eGPPNXAE">
    <mxGraphModel dx="1346" dy="920" grid="0" gridSize="10" guides="1" tooltips="1" connect="1" arrows="1" fold="1" page="1" pageScale="1" pageWidth="827" pageHeight="1169" math="0" shadow="0">
      <root>
        <mxCell id="0" />
        <mxCell id="1" parent="0" />
        <mxCell id="_MhNV7lyd6g4aGdnvyVa-31" style="edgeStyle=orthogonalEdgeStyle;rounded=0;orthogonalLoop=1;jettySize=auto;html=1;entryX=0;entryY=0.5;entryDx=0;entryDy=0;" parent="1" source="_MhNV7lyd6g4aGdnvyVa-2" target="_MhNV7lyd6g4aGdnvyVa-26" edge="1">
          <mxGeometry relative="1" as="geometry" />
        </mxCell>
        <mxCell id="_MhNV7lyd6g4aGdnvyVa-2" value="Load Balancer" style="rounded=1;whiteSpace=wrap;html=1;fontFamily=Helvetica;" parent="1" vertex="1">
          <mxGeometry x="160" y="200" width="160" height="80" as="geometry" />
        </mxCell>
        <mxCell id="_MhNV7lyd6g4aGdnvyVa-36" style="edgeStyle=orthogonalEdgeStyle;rounded=0;orthogonalLoop=1;jettySize=auto;html=1;entryX=1;entryY=0.5;entryDx=0;entryDy=0;curved=1;exitX=0.5;exitY=1;exitDx=0;exitDy=0;startArrow=classic;startFill=1;" parent="1" source="_MhNV7lyd6g4aGdnvyVa-3" target="_MhNV7lyd6g4aGdnvyVa-34" edge="1">
          <mxGeometry relative="1" as="geometry">
            <Array as="points">
              <mxPoint x="840" y="350" />
              <mxPoint x="800" y="350" />
              <mxPoint x="800" y="440" />
            </Array>
          </mxGeometry>
        </mxCell>
        <mxCell id="_MhNV7lyd6g4aGdnvyVa-37" value="path to file location" style="edgeLabel;html=1;align=center;verticalAlign=middle;resizable=0;points=[];" parent="_MhNV7lyd6g4aGdnvyVa-36" vertex="1" connectable="0">
          <mxGeometry x="-0.2091" y="-3" relative="1" as="geometry">
            <mxPoint as="offset" />
          </mxGeometry>
        </mxCell>
        <mxCell id="_MhNV7lyd6g4aGdnvyVa-51" style="edgeStyle=orthogonalEdgeStyle;rounded=0;orthogonalLoop=1;jettySize=auto;html=1;entryX=0.5;entryY=0;entryDx=0;entryDy=0;startArrow=none;startFill=0;curved=1;" parent="1" source="_MhNV7lyd6g4aGdnvyVa-3" target="_MhNV7lyd6g4aGdnvyVa-50" edge="1">
          <mxGeometry relative="1" as="geometry" />
        </mxCell>
        <mxCell id="_MhNV7lyd6g4aGdnvyVa-3" value="Object Store&lt;br&gt;(Raw videos)&lt;br&gt;Minio ?" style="rounded=1;whiteSpace=wrap;html=1;fontFamily=Helvetica;" parent="1" vertex="1">
          <mxGeometry x="760" y="200" width="160" height="80" as="geometry" />
        </mxCell>
        <mxCell id="_MhNV7lyd6g4aGdnvyVa-16" value="" style="shape=flexArrow;endArrow=classic;html=1;rounded=0;" parent="1" edge="1">
          <mxGeometry width="50" height="50" relative="1" as="geometry">
            <mxPoint x="40" y="240" as="sourcePoint" />
            <mxPoint x="120" y="240" as="targetPoint" />
          </mxGeometry>
        </mxCell>
        <mxCell id="_MhNV7lyd6g4aGdnvyVa-48" style="edgeStyle=orthogonalEdgeStyle;rounded=0;orthogonalLoop=1;jettySize=auto;html=1;curved=1;exitX=1;exitY=0.5;exitDx=0;exitDy=0;entryX=0.25;entryY=1;entryDx=0;entryDy=0;startArrow=classic;startFill=1;" parent="1" source="_MhNV7lyd6g4aGdnvyVa-23" target="_MhNV7lyd6g4aGdnvyVa-38" edge="1">
          <mxGeometry relative="1" as="geometry" />
        </mxCell>
        <mxCell id="_MhNV7lyd6g4aGdnvyVa-49" style="edgeStyle=orthogonalEdgeStyle;rounded=0;orthogonalLoop=1;jettySize=auto;html=1;entryX=0.75;entryY=1;entryDx=0;entryDy=0;startArrow=classic;startFill=1;curved=1;" parent="1" source="_MhNV7lyd6g4aGdnvyVa-23" target="_MhNV7lyd6g4aGdnvyVa-3" edge="1">
          <mxGeometry relative="1" as="geometry" />
        </mxCell>
        <mxCell id="_MhNV7lyd6g4aGdnvyVa-23" value="Queue&lt;br&gt;(kafka)" style="rounded=1;whiteSpace=wrap;html=1;fontFamily=Helvetica;" parent="1" vertex="1">
          <mxGeometry x="760" y="520" width="160" height="80" as="geometry" />
        </mxCell>
        <mxCell id="_MhNV7lyd6g4aGdnvyVa-29" value="" style="group" parent="1" vertex="1" connectable="0">
          <mxGeometry x="360" y="180" width="350" height="120" as="geometry" />
        </mxCell>
        <mxCell id="_MhNV7lyd6g4aGdnvyVa-26" value="" style="rounded=1;whiteSpace=wrap;html=1;fontFamily=Helvetica;" parent="_MhNV7lyd6g4aGdnvyVa-29" vertex="1">
          <mxGeometry width="350" height="120" as="geometry" />
        </mxCell>
        <mxCell id="_MhNV7lyd6g4aGdnvyVa-24" value="Front" style="rounded=1;whiteSpace=wrap;html=1;fontFamily=Helvetica;" parent="_MhNV7lyd6g4aGdnvyVa-29" vertex="1">
          <mxGeometry x="10" y="30" width="160" height="80" as="geometry" />
        </mxCell>
        <mxCell id="_MhNV7lyd6g4aGdnvyVa-25" value="Back" style="rounded=1;whiteSpace=wrap;html=1;fontFamily=Helvetica;" parent="_MhNV7lyd6g4aGdnvyVa-29" vertex="1">
          <mxGeometry x="180" y="30" width="160" height="80" as="geometry" />
        </mxCell>
        <mxCell id="_MhNV7lyd6g4aGdnvyVa-28" value="App" style="text;html=1;strokeColor=none;fillColor=none;align=center;verticalAlign=middle;whiteSpace=wrap;rounded=0;" parent="_MhNV7lyd6g4aGdnvyVa-29" vertex="1">
          <mxGeometry x="145" width="60" height="30" as="geometry" />
        </mxCell>
        <mxCell id="_MhNV7lyd6g4aGdnvyVa-32" style="edgeStyle=orthogonalEdgeStyle;rounded=0;orthogonalLoop=1;jettySize=auto;html=1;" parent="1" source="_MhNV7lyd6g4aGdnvyVa-26" target="_MhNV7lyd6g4aGdnvyVa-3" edge="1">
          <mxGeometry relative="1" as="geometry" />
        </mxCell>
        <mxCell id="_MhNV7lyd6g4aGdnvyVa-34" value="NoSQL&lt;br&gt;(video metadata, user data...)&lt;br&gt;mongodb" style="rounded=1;whiteSpace=wrap;html=1;fontFamily=Helvetica;" parent="1" vertex="1">
          <mxGeometry x="620" y="400" width="160" height="80" as="geometry" />
        </mxCell>
        <mxCell id="_MhNV7lyd6g4aGdnvyVa-35" style="edgeStyle=orthogonalEdgeStyle;rounded=0;orthogonalLoop=1;jettySize=auto;html=1;entryX=0;entryY=0.5;entryDx=0;entryDy=0;startArrow=classic;startFill=1;curved=1;" parent="1" source="_MhNV7lyd6g4aGdnvyVa-26" target="_MhNV7lyd6g4aGdnvyVa-34" edge="1">
          <mxGeometry relative="1" as="geometry">
            <Array as="points">
              <mxPoint x="535" y="440" />
            </Array>
          </mxGeometry>
        </mxCell>
        <mxCell id="_MhNV7lyd6g4aGdnvyVa-45" style="edgeStyle=orthogonalEdgeStyle;rounded=0;orthogonalLoop=1;jettySize=auto;html=1;entryX=1;entryY=0.5;entryDx=0;entryDy=0;curved=1;" parent="1" source="_MhNV7lyd6g4aGdnvyVa-38" target="_MhNV7lyd6g4aGdnvyVa-39" edge="1">
          <mxGeometry relative="1" as="geometry" />
        </mxCell>
        <mxCell id="_MhNV7lyd6g4aGdnvyVa-38" value="Encoding Service" style="rounded=1;whiteSpace=wrap;html=1;fontFamily=Helvetica;" parent="1" vertex="1">
          <mxGeometry x="920" y="400" width="160" height="80" as="geometry" />
        </mxCell>
        <mxCell id="_MhNV7lyd6g4aGdnvyVa-54" style="edgeStyle=orthogonalEdgeStyle;rounded=0;orthogonalLoop=1;jettySize=auto;html=1;entryX=1;entryY=0.5;entryDx=0;entryDy=0;exitX=0;exitY=0.75;exitDx=0;exitDy=0;curved=1;" parent="1" source="_MhNV7lyd6g4aGdnvyVa-39" target="_MhNV7lyd6g4aGdnvyVa-53" edge="1">
          <mxGeometry relative="1" as="geometry" />
        </mxCell>
        <mxCell id="_MhNV7lyd6g4aGdnvyVa-39" value="Object Store&lt;br&gt;(encoded videos, profile pictures, ...)&lt;br&gt;Minio ?" style="rounded=1;whiteSpace=wrap;html=1;fontFamily=Helvetica;" parent="1" vertex="1">
          <mxGeometry x="760" y="680" width="160" height="80" as="geometry" />
        </mxCell>
        <mxCell id="_MhNV7lyd6g4aGdnvyVa-46" style="edgeStyle=orthogonalEdgeStyle;rounded=0;orthogonalLoop=1;jettySize=auto;html=1;entryX=0;entryY=0.5;entryDx=0;entryDy=0;curved=1;exitX=0.5;exitY=1;exitDx=0;exitDy=0;startArrow=classic;startFill=1;" parent="1" source="_MhNV7lyd6g4aGdnvyVa-34" target="_MhNV7lyd6g4aGdnvyVa-39" edge="1">
          <mxGeometry relative="1" as="geometry">
            <mxPoint x="650" y="590" as="sourcePoint" />
            <mxPoint x="590" y="750" as="targetPoint" />
          </mxGeometry>
        </mxCell>
        <mxCell id="_MhNV7lyd6g4aGdnvyVa-47" value="path to file location" style="edgeLabel;html=1;align=center;verticalAlign=middle;resizable=0;points=[];" parent="_MhNV7lyd6g4aGdnvyVa-46" vertex="1" connectable="0">
          <mxGeometry x="-0.2091" y="-3" relative="1" as="geometry">
            <mxPoint as="offset" />
          </mxGeometry>
        </mxCell>
        <mxCell id="_MhNV7lyd6g4aGdnvyVa-52" style="edgeStyle=orthogonalEdgeStyle;rounded=0;orthogonalLoop=1;jettySize=auto;html=1;curved=1;" parent="1" source="_MhNV7lyd6g4aGdnvyVa-50" target="_MhNV7lyd6g4aGdnvyVa-38" edge="1">
          <mxGeometry relative="1" as="geometry" />
        </mxCell>
        <mxCell id="_MhNV7lyd6g4aGdnvyVa-50" value="Load Balancer" style="rounded=1;whiteSpace=wrap;html=1;fontFamily=Helvetica;" parent="1" vertex="1">
          <mxGeometry x="1030" y="260" width="160" height="80" as="geometry" />
        </mxCell>
        <mxCell id="_MhNV7lyd6g4aGdnvyVa-53" value="CDN" style="rounded=1;whiteSpace=wrap;html=1;fontFamily=Helvetica;" parent="1" vertex="1">
          <mxGeometry x="240" y="550" width="160" height="80" as="geometry" />
        </mxCell>
        <mxCell id="_MhNV7lyd6g4aGdnvyVa-57" style="edgeStyle=orthogonalEdgeStyle;rounded=0;orthogonalLoop=1;jettySize=auto;html=1;entryX=0.25;entryY=1;entryDx=0;entryDy=0;curved=1;startArrow=classic;startFill=1;" parent="1" source="_MhNV7lyd6g4aGdnvyVa-56" target="_MhNV7lyd6g4aGdnvyVa-34" edge="1">
          <mxGeometry relative="1" as="geometry" />
        </mxCell>
        <mxCell id="_MhNV7lyd6g4aGdnvyVa-56" value="Cache&lt;br&gt;LRU&lt;br&gt;In Memory&lt;br&gt;redis?" style="rounded=1;whiteSpace=wrap;html=1;fontFamily=Helvetica;" parent="1" vertex="1">
          <mxGeometry x="400" y="450" width="160" height="80" as="geometry" />
        </mxCell>
        <mxCell id="_MhNV7lyd6g4aGdnvyVa-58" style="edgeStyle=orthogonalEdgeStyle;rounded=0;orthogonalLoop=1;jettySize=auto;html=1;entryX=0.383;entryY=1.017;entryDx=0;entryDy=0;entryPerimeter=0;curved=1;startArrow=classic;startFill=1;" parent="1" source="_MhNV7lyd6g4aGdnvyVa-56" target="_MhNV7lyd6g4aGdnvyVa-26" edge="1">
          <mxGeometry relative="1" as="geometry" />
        </mxCell>
        <mxCell id="_MhNV7lyd6g4aGdnvyVa-60" style="edgeStyle=orthogonalEdgeStyle;rounded=0;orthogonalLoop=1;jettySize=auto;html=1;entryX=0.25;entryY=1;entryDx=0;entryDy=0;curved=1;startArrow=classic;startFill=1;" parent="1" source="_MhNV7lyd6g4aGdnvyVa-59" target="_MhNV7lyd6g4aGdnvyVa-26" edge="1">
          <mxGeometry relative="1" as="geometry" />
        </mxCell>
        <mxCell id="_MhNV7lyd6g4aGdnvyVa-61" style="edgeStyle=orthogonalEdgeStyle;rounded=0;orthogonalLoop=1;jettySize=auto;html=1;curved=1;startArrow=classic;startFill=1;" parent="1" source="_MhNV7lyd6g4aGdnvyVa-59" target="_MhNV7lyd6g4aGdnvyVa-53" edge="1">
          <mxGeometry relative="1" as="geometry" />
        </mxCell>
        <mxCell id="_MhNV7lyd6g4aGdnvyVa-59" value="Load Balancer" style="rounded=1;whiteSpace=wrap;html=1;fontFamily=Helvetica;" parent="1" vertex="1">
          <mxGeometry x="200" y="400" width="160" height="80" as="geometry" />
        </mxCell>
        <mxCell id="_MhNV7lyd6g4aGdnvyVa-62" value="&lt;h1&gt;Video Streaming by small chunks&lt;/h1&gt;" style="text;html=1;strokeColor=none;fillColor=none;spacing=5;spacingTop=-20;whiteSpace=wrap;overflow=hidden;rounded=0;" parent="1" vertex="1">
          <mxGeometry x="80" y="680" width="190" height="120" as="geometry" />
        </mxCell>
      </root>
    </mxGraphModel>
  </diagram>
</mxfile>
